<svg width="166" height="166" viewBox="0 0 166 166" fill="none" xmlns="http://www.w3.org/2000/svg">
<g clip-path="url(#clip0_532_665)">
<path fill-rule="evenodd" clip-rule="evenodd" d="M0 0H166V166H0V0ZM38.0417 123.22C38.0417 124.396 38.2388 125.555 38.6157 126.648C27.1478 115.017 20.7283 99.3336 20.75 83C20.75 48.6207 48.6207 20.75 83 20.75C117.379 20.75 145.25 48.6207 145.25 83C145.272 99.3591 138.833 115.065 127.332 126.7C127.873 125.222 128.07 123.641 127.908 122.076C127.745 120.511 127.227 119.003 126.394 117.669C125.561 116.334 124.434 115.207 123.1 114.374C121.765 113.54 120.258 113.022 118.693 112.859C91.8637 110.082 74.3023 109.816 47.3411 112.797C44.7794 113.086 42.4142 114.309 40.6983 116.233C38.9825 118.157 38.0365 120.643 38.0417 123.22ZM13.8333 83C13.8333 120.253 43.288 150.631 80.178 152.111C80.9588 152.154 81.7408 152.172 82.5227 152.163L83 152.167C121.201 152.167 152.167 121.201 152.167 83C152.167 44.7993 121.201 13.8333 83 13.8333C44.7993 13.8333 13.8333 44.7993 13.8333 83ZM83 96.8333C90.3377 96.8333 97.3748 93.9185 102.563 88.7299C107.752 83.5415 110.667 76.5043 110.667 69.1667C110.667 61.829 107.752 54.7919 102.563 49.6034C97.3748 44.4149 90.3377 41.5 83 41.5C75.6623 41.5 68.6252 44.4149 63.4367 49.6034C58.2482 54.7919 55.3333 61.829 55.3333 69.1667C55.3333 76.5043 58.2482 83.5415 63.4367 88.7299C68.6252 93.9185 75.6623 96.8333 83 96.8333Z" fill="#DFE0E4"/>
</g>
<defs>
<clipPath id="clip0_532_665">
<rect width="166" height="166" fill="white"/>
</clipPath>
</defs>
</svg>
